# Blender v2.78 (sub 0) OBJ File: 'dustsuckerroom2.blend'
# www.blender.org
mtllib dustsuckerroom2.mtl
o wall_east.001_Cube.003
v -5.650800 -0.000025 3.696502
v -8.600100 -0.000025 -3.740000
v -8.135318 -0.000021 -3.924330
v -5.186018 -0.000021 3.512173
v -5.650826 3.699975 3.696510
v -8.600125 3.699975 -3.739992
v -8.135343 3.699978 -3.924320
v -5.186043 3.699978 3.512181
v -5.650820 2.988428 3.696509
v -8.600121 2.988428 -3.739994
v -8.135338 2.988432 -3.924322
v -5.186038 2.988432 3.512179
v -4.315044 2.988428 7.064598
v -4.315049 3.699975 7.064599
v -3.850262 2.988432 6.880268
v -3.850266 3.699978 6.880270
vt 0.7832 0.8245
vt 0.0069 0.8245
vt 0.0069 0.7760
vt 0.7832 0.7760
vt 0.7832 0.7270
vt 0.7832 0.7755
vt 0.0069 0.7755
vt 0.0069 0.7270
vt 0.7832 0.2980
vt 0.7832 0.3670
vt 0.0069 0.3670
vt 0.0069 0.2980
vt 0.2969 0.8945
vt 0.3660 0.8945
vt 0.3660 0.9430
vt 0.2969 0.9430
vt 0.7832 0.6575
vt 0.7832 0.7266
vt 0.0069 0.7266
vt 0.0069 0.6575
vt 0.7918 0.3627
vt 0.7918 0.0727
vt 0.8404 0.0727
vt 0.8404 0.3627
vt 0.3664 0.9430
vt 0.3664 0.8945
vt 0.7180 0.8945
vt 0.7180 0.9430
vt 0.7832 0.3675
vt 0.0069 0.3675
vt 0.0069 0.8945
vt 0.0069 0.9430
vt 0.7832 0.0080
vt 0.0069 0.0080
vt 0.8527 0.0565
vt 0.7837 0.0565
vt 0.7837 0.0080
vt 0.8527 0.0080
vt 0.0069 0.8940
vt 0.0069 0.8250
vt 0.3585 0.8250
vt 0.3585 0.8940
vt 0.0069 0.9920
vt 0.0069 0.9435
vt 0.3585 0.9435
vt 0.3585 0.9920
vt 0.3590 0.8940
vt 0.3590 0.8250
vt 0.7106 0.8250
vt 0.7106 0.8940
vn 0.0000 -1.0000 -0.0000
vn -0.0000 1.0000 0.0000
vn -0.9296 -0.0000 0.3687
vn -0.3687 -0.0000 -0.9296
vn 0.9296 0.0000 -0.3687
vn 0.3687 0.0000 0.9296
usemtl None
s 1
f 1/1/1 2/2/1 3/3/1 4/4/1
f 5/5/2 8/6/2 7/7/2 6/8/2
f 9/9/3 5/10/3 6/11/3 10/12/3
f 10/13/4 6/14/4 7/15/4 11/16/4
f 11/17/5 7/18/5 8/19/5 12/20/5
f 9/21/6 1/22/6 4/23/6 12/24/6
f 8/25/2 5/26/2 14/27/2 16/28/2
f 3/29/5 11/17/5 12/20/5 4/30/5
f 2/31/4 10/13/4 11/16/4 3/32/4
f 1/33/3 9/9/3 10/12/3 2/34/3
f 14/35/6 13/36/6 15/37/6 16/38/6
f 12/39/5 8/40/5 16/41/5 15/42/5
f 9/43/1 12/44/1 15/45/1 13/46/1
f 5/47/3 9/48/3 13/49/3 14/50/3
o Plane
v 3.310191 0.143709 3.667739
v 5.939514 0.143709 -9.401926
v -4.363670 0.143709 6.711175
v -8.485226 0.143709 -3.681107
v 7.728794 0.143709 -4.890346
v 0.976303 0.143709 -2.230501
vn 0.0000 1.0000 -0.0000
usemtl None
s off
f 20//7 21//7 18//7
f 22//7 21//7 20//7 19//7 17//7
o wall_west_Cube.018
v 8.656212 0.000094 -4.748416
v 1.034837 0.000036 -2.265267
v 8.471338 0.000094 -5.214569
v 8.656185 3.700094 -4.748405
v 1.034812 3.700035 -2.265257
v 8.471313 3.700094 -5.214559
v 1.662623 3.700039 -1.974772
v 1.662647 0.000039 -1.974782
v 4.037538 0.000039 4.013378
v 3.594602 0.000036 4.189045
v 3.594574 3.700035 4.189056
v 4.037514 3.700039 4.013387
vt -0.0046 0.8141
vt 0.6669 0.8141
vt 0.7094 0.7695
vt -0.0046 0.7695
vt 0.0001 0.8134
vt 0.0001 0.7688
vt 0.7141 0.7688
vt 0.6716 0.8134
vt 0.7988 0.3845
vt 0.7988 0.7642
vt 0.0528 0.7642
vt 0.0528 0.3845
vt 0.6599 0.8125
vt -0.0074 0.8127
vt -0.0074 0.7702
vt 0.7046 0.7700
vt 0.8010 0.0023
vt 0.8010 0.3820
vt 0.0078 0.3820
vt 0.0078 0.0023
vt 0.0054 0.3850
vt 0.0054 0.7648
vt 0.0550 0.7648
vt 0.0550 0.3850
vt 0.0561 0.3822
vt 0.0089 0.3822
vt 0.0089 0.7620
vt 0.0561 0.7620
vt 0.7988 0.7642
vt 0.0575 0.7642
vt 0.0575 0.3845
vt 0.7988 0.3845
vt 0.0078 0.7642
vt 0.0078 0.3845
vt 0.7987 0.3845
vt 0.7987 0.7642
vt 0.7036 0.7722
vt -0.0083 0.7722
vt -0.0083 0.8147
vt 0.6590 0.8147
vn 0.0000 -1.0000 -0.0000
vn -0.0000 1.0000 0.0000
vn 0.3687 -0.0000 0.9296
vn -0.3687 -0.0000 -0.9296
vn 0.9296 0.0000 -0.3687
vn -0.9296 -0.0000 0.3687
usemtl None
s 1
f 23/51/8 30/52/8 24/53/8 25/54/8
f 26/55/9 28/56/9 27/57/9 29/58/9
f 23/59/10 26/60/10 29/61/10 30/62/10
f 30/63/8 31/64/8 32/65/8 24/66/8
f 24/67/11 27/68/11 28/69/11 25/70/11
f 26/71/12 23/72/12 25/73/12 28/74/12
f 34/75/10 33/76/10 32/77/10 31/78/10
f 29/79/12 34/80/12 31/81/12 30/82/12
f 27/83/13 24/84/13 32/85/13 33/86/13
f 27/87/9 33/88/9 34/89/9 29/90/9
o wall_south_Cube.040
v -8.555336 -0.000027 -3.755812
v 6.249144 0.000074 -9.627235
v 6.433474 0.000074 -9.162453
v -8.371008 -0.000027 -3.291029
v -8.555359 3.699973 -3.755804
v 6.249123 3.700074 -9.627226
v 6.433448 3.700074 -9.162443
v -8.371031 3.699973 -3.291021
v -2.203136 0.833142 -5.737194
v -2.387468 0.833142 -6.201974
v -2.203136 2.174727 -5.737194
v -2.387468 2.174727 -6.201974
v -3.067578 0.833142 -5.394358
v -3.251909 0.833142 -5.859139
v -3.067578 2.174727 -5.394357
v -3.251909 2.174727 -5.859139
vt 0.9617 0.0041
vt 0.0045 0.0041
vt 0.0045 0.0383
vt 0.9617 0.0383
vt 0.9617 0.0041
vt 0.9617 0.0383
vt 0.0045 0.0383
vt 0.0045 0.0041
vt 0.9959 0.0383
vt 0.9959 0.2913
vt 0.9617 0.2913
vt 0.9617 0.0383
vt 0.0045 0.2913
vt 0.5080 0.1870
vt 0.5080 0.0953
vt 0.9959 0.2913
vt 0.9959 0.0383
vt 0.9617 0.2913
vt 0.0111 0.3420
vt 0.0111 0.3070
vt 0.1048 0.3070
vt 0.1048 0.3420
vt 0.5080 0.1870
vt 0.5716 0.1870
vt 0.9617 0.2913
vt 0.0045 0.2913
vt 0.0111 0.4119
vt 0.0111 0.3770
vt 0.0761 0.3770
vt 0.0761 0.4119
vt 0.1049 0.3070
vt 0.1398 0.3070
vt 0.1398 0.3720
vt 0.1049 0.3720
vt 0.0111 0.3769
vt 0.0111 0.3420
vt 0.1048 0.3420
vt 0.1048 0.3769
vt 0.0045 0.0383
vt 0.5080 0.0953
vt 0.5716 0.0953
vt 0.9617 0.0383
vt 0.5716 0.0953
vt 0.5716 0.1870
vn 0.0000 -1.0000 -0.0000
vn -0.0000 1.0000 0.0000
vn 0.9296 0.0000 -0.3687
vn 0.3687 0.0000 0.9296
vn -0.9296 -0.0000 0.3687
vn -0.3687 -0.0000 -0.9296
usemtl None
s 1
f 35/91/14 36/92/14 37/93/14 38/94/14
f 39/95/15 42/96/15 41/97/15 40/98/15
f 36/99/16 40/100/16 41/101/16 37/102/16
f 37/93/17 41/103/17 45/104/17 43/105/17
f 39/106/18 35/107/18 38/94/18 42/108/18
f 47/109/16 48/110/16 50/111/16 49/112/16
f 46/113/19 50/114/19 39/115/19 40/116/19
f 43/117/15 44/118/15 48/119/15 47/120/15
f 46/121/14 45/122/14 49/123/14 50/124/14
f 44/125/18 43/126/18 45/127/18 46/128/18
f 40/116/19 36/129/19 44/130/19 46/113/19
f 48/131/19 35/132/19 39/115/19 50/114/19
f 44/130/19 36/129/19 35/132/19 48/131/19
f 38/94/17 37/93/17 43/105/17 47/133/17
f 47/133/17 49/134/17 42/108/17 38/94/17
f 45/104/17 41/103/17 42/108/17 49/134/17
o wall_east_Cube.002
v 7.590242 -0.000025 -4.936574
v 5.789699 -0.000025 -9.476549
v 6.254480 -0.000021 -9.660879
v 8.055024 -0.000021 -5.120903
v 7.598795 3.699975 -4.914938
v 5.789673 3.699975 -9.476540
v 6.254456 3.699978 -9.660868
v 8.063577 3.699978 -5.099267
v 7.590220 2.988428 -4.936567
v 5.789679 2.988428 -9.476542
v 6.254460 2.988432 -9.660870
v 8.055003 2.988432 -5.120897
vt 0.7832 0.8245
vt 0.0069 0.8245
vt 0.0069 0.7760
vt 0.7832 0.7760
vt 0.7832 0.7270
vt 0.7832 0.7755
vt 0.0069 0.7755
vt 0.0069 0.7270
vt 0.7832 0.2980
vt 0.7832 0.3670
vt 0.0069 0.3670
vt 0.0069 0.2980
vt 0.2969 0.8945
vt 0.3660 0.8945
vt 0.3660 0.9430
vt 0.2969 0.9430
vt 0.7832 0.6575
vt 0.7832 0.7266
vt 0.0069 0.7266
vt 0.0069 0.6575
vt 0.7918 0.3627
vt 0.7918 0.0727
vt 0.8404 0.0727
vt 0.8404 0.3627
vt 0.7832 0.3675
vt 0.0069 0.3675
vt 0.0069 0.8945
vt 0.0069 0.9430
vt 0.7832 0.0080
vt 0.0069 0.0080
vn 0.0000 -1.0000 -0.0000
vn -0.0000 1.0000 0.0000
vn -0.9296 -0.0000 0.3687
vn -0.3687 -0.0000 -0.9296
vn 0.9296 0.0000 -0.3687
vn 0.3687 0.0000 0.9296
usemtl None
s 1
f 51/135/20 52/136/20 53/137/20 54/138/20
f 55/139/21 58/140/21 57/141/21 56/142/21
f 59/143/22 55/144/22 56/145/22 60/146/22
f 60/147/23 56/148/23 57/149/23 61/150/23
f 61/151/24 57/152/24 58/153/24 62/154/24
f 59/155/25 51/156/25 54/157/25 62/158/25
f 53/159/24 61/151/24 62/154/24 54/160/24
f 52/161/23 60/147/23 61/150/23 53/162/23
f 51/163/22 59/143/22 60/146/22 52/164/22
o wall_north_Cube.038
v -4.400455 -0.000025 6.853611
v 3.587335 0.000047 3.685672
v 3.771665 0.000047 4.150454
v -4.216125 -0.000025 7.318394
v -4.400477 3.699975 6.853621
v -4.216149 3.699975 7.318403
v 1.531029 2.174748 4.501198
v 3.587313 3.700047 3.685681
v -3.419697 0.113709 6.464646
v -2.003521 0.113720 5.902993
v 0.666596 0.833156 4.844031
v 1.531038 0.833163 4.501195
v 3.771639 3.700047 4.150464
v -1.819204 2.113720 6.367780
v -1.819190 0.113720 6.367774
v 1.715369 0.833163 4.965976
v 0.850927 0.833156 5.308812
v 0.850918 2.174742 5.308815
v -3.235366 0.113709 6.929427
v -3.235379 2.113709 6.929432
v 0.666587 2.174742 4.844034
v -2.003535 2.113720 5.902999
v -3.419711 2.113709 6.464651
v 1.715361 2.174748 4.965980
v -0.922297 0.000002 5.474182
v -0.922321 3.700002 5.474192
v -0.737990 3.700002 5.938973
v -0.737973 0.000002 5.938967
vt 0.9947 0.4200
vt 0.6240 0.4200
vt 0.6240 0.3705
vt 0.9947 0.3705
vt 0.0554 0.7901
vt 0.0554 0.4235
vt 0.0058 0.4235
vt 0.0058 0.7901
vt 0.3625 0.2189
vt 0.0039 0.3700
vt 0.0040 0.0034
vt 0.3625 0.0859
vt 0.0058 0.7901
vt 0.0058 0.4235
vt 0.0554 0.4235
vt 0.0554 0.7901
vt 0.6240 0.0034
vt 0.7393 0.0147
vt 0.8902 0.0147
vt 0.9947 0.0034
vt 0.9947 0.3705
vt 0.9947 0.4200
vt 0.6240 0.4200
vt 0.6240 0.3705
vt 0.1239 0.5593
vt 0.1239 0.4263
vt 0.1735 0.4263
vt 0.1735 0.5593
vt 0.3423 0.4263
vt 0.4344 0.4263
vt 0.4344 0.4759
vt 0.3423 0.4759
vt 0.3625 0.2189
vt 0.0040 0.3700
vt 0.6240 0.3700
vt 0.4547 0.2189
vt 0.1239 0.5593
vt 0.1239 0.4263
vt 0.1735 0.4263
vt 0.1735 0.5593
vt 0.4344 0.4759
vt 0.3423 0.4759
vt 0.3423 0.4263
vt 0.4344 0.4263
vt 0.0630 0.6245
vt 0.0630 0.4263
vt 0.1125 0.4263
vt 0.1125 0.6245
vt 0.3320 0.4759
vt 0.1811 0.4759
vt 0.1811 0.4263
vt 0.3320 0.4263
vt 0.3320 0.4759
vt 0.1811 0.4759
vt 0.1811 0.4263
vt 0.3320 0.4263
vt 0.0630 0.6245
vt 0.0630 0.4263
vt 0.1125 0.4263
vt 0.1125 0.6245
vt 0.4547 0.0859
vt 0.6240 0.0034
vt 0.6240 0.3700
vt 0.4547 0.2189
vt 0.9947 0.3700
vt 0.8902 0.2128
vt 0.8902 0.0147
vt 0.9947 0.0034
vt 0.7393 0.2128
vt 0.7393 0.0147
vt 0.6240 0.4195
vt 0.0040 0.4195
vt 0.9947 0.3700
vt 0.8902 0.2128
vt 0.7393 0.2128
vt 0.4547 0.0859
vt 0.0039 0.4200
vt 0.0039 0.3705
vt 0.0040 0.0034
vt 0.3625 0.0859
vn 0.0000 -1.0000 -0.0000
vn -0.9296 -0.0000 0.3687
vn -0.3687 0.0000 -0.9296
vn 0.9296 0.0000 -0.3687
vn 0.3687 0.0000 0.9296
vn -0.0000 1.0000 0.0000
usemtl Material.003
s 1
f 63/165/26 87/166/26 90/167/26 66/168/26
f 67/169/27 63/170/27 66/171/27 68/172/27
f 69/173/28 70/174/28 64/175/28 74/176/28
f 64/177/29 70/178/29 75/179/29 65/180/29
f 90/181/30 77/182/30 81/183/30 66/184/30
f 67/185/31 68/186/31 89/187/31 88/188/31
f 69/189/27 74/190/27 78/191/27 86/192/27
f 79/193/31 78/194/31 74/195/31 73/196/31
f 86/197/30 75/198/30 89/199/30 80/200/30
f 80/201/29 79/202/29 73/203/29 83/204/29
f 83/205/26 69/206/26 86/207/26 80/208/26
f 82/209/29 81/210/29 71/211/29 85/212/29
f 85/213/26 84/214/26 76/215/26 82/216/26
f 81/217/31 77/218/31 72/219/31 71/220/31
f 84/221/27 72/222/27 77/223/27 76/224/27
f 73/225/28 87/226/28 88/227/28 83/228/28
f 67/229/28 85/230/28 71/231/28 63/232/28
f 85/230/28 67/229/28 88/227/28 84/233/28
f 74/176/28 64/175/28 87/226/28 73/225/28
f 87/226/28 63/232/28 71/231/28 72/234/28
f 88/227/28 87/226/28 72/234/28 84/233/28
f 88/227/28 70/174/28 69/173/28 83/228/28
f 88/227/31 89/235/31 75/236/31 70/174/31
f 68/237/30 82/238/30 76/239/30 89/199/30
f 89/199/30 90/181/30 79/240/30 80/200/30
f 90/167/26 87/166/26 64/241/26 65/242/26
f 89/199/30 76/239/30 77/182/30 90/181/30
f 79/240/30 90/181/30 65/243/30 78/244/30
f 75/198/30 86/197/30 78/244/30 65/243/30
f 82/238/30 68/237/30 66/184/30 81/183/30
